<svg width="366" height="238" viewBox="0 0 366 238" fill="none" xmlns="http://www.w3.org/2000/svg">
<rect width="366" height="238" fill="#F5F5F5"/>
<g filter="url(#filter0_d_34_6046)">
<rect x="31" y="35.1841" width="305" height="168.553" rx="10.7018" fill="#074C83" shape-rendering="crispEdges"/>
<g filter="url(#filter1_b_34_6046)">
<rect x="31" y="35.1841" width="305" height="168.733" rx="8.02632" fill="url(#paint0_radial_34_6046)"/>
<rect x="31.1167" y="35.3008" width="304.767" height="168.5" rx="7.90964" stroke="url(#paint1_radial_34_6046)" stroke-width="0.233352"/>
<rect x="31.1167" y="35.3008" width="304.767" height="168.5" rx="7.90964" stroke="url(#paint2_radial_34_6046)" stroke-width="0.233352"/>
</g>
<path d="M53.7612 92.3835V106.146V106.567C53.7612 107.658 54.6462 108.543 55.7378 108.543H79.098C80.1897 108.543 81.0746 107.658 81.0746 106.567V91.9628C81.0746 90.8712 80.1897 89.9862 79.098 89.9862H55.7378C54.6462 89.9862 53.7612 90.8712 53.7612 91.9628V92.3835Z" fill="url(#paint3_linear_34_6046)" stroke="#8D731D" stroke-width="0.164719"/>
<path d="M64.2044 90.075C63.0998 92.8867 61.5534 100.517 64.2044 108.543" stroke="#8D731D" stroke-width="0.164719"/>
<path d="M71.0328 90.075C72.1373 92.8867 73.6838 100.517 71.0328 108.543" stroke="#8D731D" stroke-width="0.164719"/>
<path d="M53.8615 96.4679H62.899" stroke="#8D731D" stroke-width="0.164719"/>
<path d="M72.4386 96.3791H81.0745" stroke="#8D731D" stroke-width="0.164719"/>
<path d="M53.8615 101.795H62.899" stroke="#8D731D" stroke-width="0.164719"/>
<path d="M72.4386 101.706H81.0745" stroke="#8D731D" stroke-width="0.164719"/>
<path d="M62.3975 49.8092V57.2469H61.1775V52.1529L58.9087 57.2469H58.0633L55.7838 52.1529V57.2469H54.5638V49.8092H55.8801L58.4914 55.6417L61.0919 49.8092H62.3975ZM69.4054 54.1541C69.4054 54.3753 69.3911 54.5751 69.3626 54.7534H64.8572C64.8928 55.2243 65.0676 55.6024 65.3815 55.8878C65.6955 56.1732 66.0807 56.3159 66.5373 56.3159C67.1937 56.3159 67.6575 56.0412 67.9286 55.4919H69.2449C69.0665 56.0341 68.7419 56.48 68.271 56.8296C67.8073 57.172 67.2294 57.3433 66.5373 57.3433C65.9737 57.3433 65.4672 57.2184 65.0177 56.9687C64.5754 56.7119 64.2258 56.3551 63.9689 55.8985C63.7192 55.4348 63.5944 54.8997 63.5944 54.2933C63.5944 53.6868 63.7156 53.1553 63.9582 52.6987C64.2079 52.235 64.5539 51.8782 64.9963 51.6285C65.4458 51.3788 65.9594 51.254 66.5373 51.254C67.0938 51.254 67.5897 51.3753 68.0249 51.6178C68.4601 51.8604 68.799 52.2029 69.0415 52.6452C69.2841 53.0804 69.4054 53.5834 69.4054 54.1541ZM68.1319 53.7689C68.1248 53.3194 67.9642 52.9591 67.6503 52.688C67.3364 52.4169 66.9476 52.2813 66.4838 52.2813C66.0629 52.2813 65.7026 52.4169 65.403 52.688C65.1033 52.952 64.9249 53.3123 64.8679 53.7689H68.1319ZM77.7441 51.254C78.2078 51.254 78.6216 51.3503 78.9855 51.5429C79.3565 51.7355 79.6454 52.0209 79.8523 52.3991C80.0664 52.7772 80.1734 53.2338 80.1734 53.7689V57.2469H78.9641V53.9508C78.9641 53.4229 78.8321 53.0198 78.5681 52.7415C78.3041 52.4561 77.9438 52.3134 77.4872 52.3134C77.0306 52.3134 76.6668 52.4561 76.3957 52.7415C76.1317 53.0198 75.9997 53.4229 75.9997 53.9508V57.2469H74.7904V53.9508C74.7904 53.4229 74.6584 53.0198 74.3944 52.7415C74.1305 52.4561 73.7702 52.3134 73.3136 52.3134C72.8569 52.3134 72.4931 52.4561 72.222 52.7415C71.958 53.0198 71.826 53.4229 71.826 53.9508V57.2469H70.606V51.3503H71.826V52.0245C72.0258 51.7819 72.2791 51.5929 72.5858 51.4573C72.8926 51.3217 73.2208 51.254 73.5704 51.254C74.0413 51.254 74.4622 51.3538 74.8332 51.5536C75.2042 51.7534 75.4896 52.0423 75.6893 52.4205C75.8677 52.0637 76.146 51.7819 76.5241 51.575C76.9022 51.361 77.3089 51.254 77.7441 51.254ZM82.9458 52.2278C83.1527 51.9424 83.4345 51.7106 83.7912 51.5322C84.1551 51.3467 84.5582 51.254 85.0005 51.254C85.5214 51.254 85.9922 51.3788 86.4132 51.6285C86.8341 51.8782 87.1659 52.235 87.4084 52.6987C87.651 53.1553 87.7723 53.6797 87.7723 54.2719C87.7723 54.864 87.651 55.3955 87.4084 55.8664C87.1659 56.3302 86.8305 56.694 86.4025 56.958C85.9815 57.2148 85.5142 57.3433 85.0005 57.3433C84.5439 57.3433 84.1373 57.2541 83.7805 57.0757C83.4309 56.8974 83.1527 56.6691 82.9458 56.3908V57.2469H81.7258V49.3276H82.9458V52.2278ZM86.5309 54.2719C86.5309 53.8652 86.4453 53.5156 86.274 53.2231C86.11 52.9234 85.8888 52.6987 85.6105 52.5489C85.3394 52.3919 85.0469 52.3134 84.733 52.3134C84.4262 52.3134 84.1337 52.3919 83.8555 52.5489C83.5843 52.7058 83.3632 52.9341 83.1919 53.2338C83.0279 53.5334 82.9458 53.8866 82.9458 54.2933C82.9458 54.6999 83.0279 55.0567 83.1919 55.3634C83.3632 55.6631 83.5843 55.8914 83.8555 56.0484C84.1337 56.2053 84.4262 56.2838 84.733 56.2838C85.0469 56.2838 85.3394 56.2053 85.6105 56.0484C85.8888 55.8843 86.11 55.6488 86.274 55.342C86.4453 55.0353 86.5309 54.6785 86.5309 54.2719ZM94.3831 54.1541C94.3831 54.3753 94.3689 54.5751 94.3403 54.7534H89.8349C89.8706 55.2243 90.0454 55.6024 90.3593 55.8878C90.6732 56.1732 91.0585 56.3159 91.5151 56.3159C92.1714 56.3159 92.6352 56.0412 92.9063 55.4919H94.2226C94.0442 56.0341 93.7196 56.48 93.2488 56.8296C92.785 57.172 92.2071 57.3433 91.5151 57.3433C90.9514 57.3433 90.4449 57.2184 89.9954 56.9687C89.5531 56.7119 89.2035 56.3551 88.9466 55.8985C88.6969 55.4348 88.5721 54.8997 88.5721 54.2933C88.5721 53.6868 88.6934 53.1553 88.9359 52.6987C89.1857 52.235 89.5317 51.8782 89.974 51.6285C90.4235 51.3788 90.9372 51.254 91.5151 51.254C92.0716 51.254 92.5674 51.3753 93.0026 51.6178C93.4378 51.8604 93.7767 52.2029 94.0193 52.6452C94.2619 53.0804 94.3831 53.5834 94.3831 54.1541ZM93.1096 53.7689C93.1025 53.3194 92.942 52.9591 92.6281 52.688C92.3141 52.4169 91.9253 52.2813 91.4616 52.2813C91.0406 52.2813 90.6803 52.4169 90.3807 52.688C90.081 52.952 89.9027 53.3123 89.8456 53.7689H93.1096ZM96.8037 52.2064C96.9821 51.9068 97.2175 51.6749 97.5101 51.5108C97.8097 51.3396 98.1629 51.254 98.5695 51.254V52.5168H98.2592C97.7812 52.5168 97.4173 52.6381 97.1676 52.8806C96.925 53.1232 96.8037 53.5441 96.8037 54.1434V57.2469H95.5837V51.3503H96.8037V52.2064ZM106.955 55.7273H103.841L103.306 57.2469H102.032L104.697 49.7985H106.11L108.774 57.2469H107.49L106.955 55.7273ZM106.612 54.732L105.403 51.2754L104.183 54.732H106.612ZM109.526 54.2933C109.526 53.6868 109.647 53.1553 109.89 52.6987C110.14 52.235 110.482 51.8782 110.917 51.6285C111.353 51.3788 111.852 51.254 112.416 51.254C113.129 51.254 113.718 51.4252 114.181 51.7676C114.652 52.103 114.97 52.5846 115.134 53.2124H113.818C113.711 52.9199 113.539 52.6916 113.304 52.5275C113.068 52.3634 112.772 52.2813 112.416 52.2813C111.916 52.2813 111.517 52.4597 111.217 52.8164C110.925 53.166 110.778 53.6583 110.778 54.2933C110.778 54.9282 110.925 55.4241 111.217 55.7808C111.517 56.1375 111.916 56.3159 112.416 56.3159C113.122 56.3159 113.589 56.0055 113.818 55.3848H115.134C114.963 55.9841 114.642 56.4622 114.171 56.8189C113.7 57.1685 113.115 57.3433 112.416 57.3433C111.852 57.3433 111.353 57.2184 110.917 56.9687C110.482 56.7119 110.14 56.3551 109.89 55.8985C109.647 55.4348 109.526 54.8997 109.526 54.2933ZM115.943 54.2933C115.943 53.6868 116.064 53.1553 116.307 52.6987C116.557 52.235 116.899 51.8782 117.334 51.6285C117.77 51.3788 118.269 51.254 118.833 51.254C119.546 51.254 120.135 51.4252 120.598 51.7676C121.069 52.103 121.387 52.5846 121.551 53.2124H120.234C120.127 52.9199 119.956 52.6916 119.721 52.5275C119.485 52.3634 119.189 52.2813 118.833 52.2813C118.333 52.2813 117.934 52.4597 117.634 52.8164C117.341 53.166 117.195 53.6583 117.195 54.2933C117.195 54.9282 117.341 55.4241 117.634 55.7808C117.934 56.1375 118.333 56.3159 118.833 56.3159C119.539 56.3159 120.006 56.0055 120.234 55.3848H121.551C121.38 55.9841 121.059 56.4622 120.588 56.8189C120.117 57.1685 119.532 57.3433 118.833 57.3433C118.269 57.3433 117.77 57.2184 117.334 56.9687C116.899 56.7119 116.557 56.3551 116.307 55.8985C116.064 55.4348 115.943 54.8997 115.943 54.2933ZM125.324 57.3433C124.768 57.3433 124.265 57.2184 123.815 56.9687C123.366 56.7119 123.013 56.3551 122.756 55.8985C122.499 55.4348 122.371 54.8997 122.371 54.2933C122.371 53.694 122.503 53.1624 122.767 52.6987C123.031 52.235 123.391 51.8782 123.847 51.6285C124.304 51.3788 124.814 51.254 125.378 51.254C125.941 51.254 126.452 51.3788 126.908 51.6285C127.365 51.8782 127.725 52.235 127.989 52.6987C128.253 53.1624 128.385 53.694 128.385 54.2933C128.385 54.8926 128.249 55.4241 127.978 55.8878C127.707 56.3516 127.336 56.7119 126.865 56.9687C126.402 57.2184 125.888 57.3433 125.324 57.3433ZM125.324 56.2838C125.638 56.2838 125.931 56.2089 126.202 56.0591C126.48 55.9092 126.705 55.6845 126.876 55.3848C127.047 55.0852 127.133 54.7213 127.133 54.2933C127.133 53.8652 127.051 53.5049 126.887 53.2124C126.723 52.9127 126.505 52.688 126.234 52.5382C125.963 52.3884 125.67 52.3134 125.356 52.3134C125.043 52.3134 124.75 52.3884 124.479 52.5382C124.215 52.688 124.004 52.9127 123.847 53.2124C123.691 53.5049 123.612 53.8652 123.612 54.2933C123.612 54.9282 123.773 55.4205 124.094 55.7701C124.422 56.1126 124.832 56.2838 125.324 56.2838ZM134.931 51.3503V57.2469H133.711V56.5513C133.519 56.7939 133.265 56.9865 132.951 57.1292C132.645 57.2648 132.316 57.3326 131.967 57.3326C131.503 57.3326 131.086 57.2362 130.715 57.0436C130.351 56.851 130.062 56.5656 129.848 56.1875C129.641 55.8093 129.538 55.3527 129.538 54.8176V51.3503H130.747V54.6357C130.747 55.1637 130.879 55.5703 131.143 55.8557C131.407 56.134 131.767 56.2731 132.224 56.2731C132.68 56.2731 133.041 56.134 133.305 55.8557C133.576 55.5703 133.711 55.1637 133.711 54.6357V51.3503H134.931ZM139.516 51.254C139.98 51.254 140.394 51.3503 140.757 51.5429C141.128 51.7355 141.417 52.0209 141.624 52.3991C141.831 52.7772 141.935 53.2338 141.935 53.7689V57.2469H140.725V53.9508C140.725 53.4229 140.593 53.0198 140.329 52.7415C140.065 52.4561 139.705 52.3134 139.248 52.3134C138.792 52.3134 138.428 52.4561 138.157 52.7415C137.893 53.0198 137.761 53.4229 137.761 53.9508V57.2469H136.541V51.3503H137.761V52.0245C137.961 51.7819 138.214 51.5929 138.521 51.4573C138.835 51.3217 139.166 51.254 139.516 51.254ZM144.914 52.3455V55.6096C144.914 55.8307 144.964 55.9913 145.064 56.0912C145.171 56.1839 145.349 56.2303 145.599 56.2303H146.348V57.2469H145.385C144.836 57.2469 144.415 57.1185 144.122 56.8617C143.83 56.6048 143.683 56.1875 143.683 55.6096V52.3455H142.988V51.3503H143.683V49.8841H144.914V51.3503H146.348V52.3455H144.914Z" fill="#FFFBFB"/>
<path d="M59.9763 171.169C60.3973 171.247 60.7433 171.458 61.0144 171.8C61.2855 172.143 61.4211 172.535 61.4211 172.977C61.4211 173.377 61.3212 173.73 61.1214 174.037C60.9288 174.336 60.647 174.572 60.276 174.743C59.905 174.914 59.4662 175 58.9596 175H55.7384V167.53H58.8205C59.3271 167.53 59.7623 167.612 60.1261 167.776C60.4971 167.94 60.7754 168.169 60.9609 168.461C61.1535 168.754 61.2498 169.085 61.2498 169.456C61.2498 169.892 61.1321 170.256 60.8967 170.548C60.6684 170.841 60.3616 171.047 59.9763 171.169ZM57.2367 170.612H58.6065C58.9632 170.612 59.2379 170.534 59.4305 170.377C59.6232 170.213 59.7195 169.981 59.7195 169.681C59.7195 169.382 59.6232 169.15 59.4305 168.986C59.2379 168.822 58.9632 168.739 58.6065 168.739H57.2367V170.612ZM58.7456 173.78C59.1095 173.78 59.3913 173.694 59.5911 173.523C59.798 173.352 59.9014 173.109 59.9014 172.795C59.9014 172.474 59.7944 172.225 59.5804 172.046C59.3663 171.861 59.0774 171.768 58.7135 171.768H57.2367V173.78H58.7456ZM62.2299 172.014C62.2299 171.415 62.3476 170.883 62.583 170.42C62.8256 169.956 63.1502 169.599 63.5569 169.349C63.9707 169.1 64.4309 168.975 64.9374 168.975C65.3798 168.975 65.765 169.064 66.0932 169.242C66.4285 169.421 66.6961 169.646 66.8958 169.917V169.071H68.4048V175H66.8958V174.133C66.7032 174.411 66.4357 174.643 66.0932 174.829C65.7579 175.007 65.3691 175.096 64.9267 175.096C64.4273 175.096 63.9707 174.968 63.5569 174.711C63.1502 174.454 62.8256 174.094 62.583 173.63C62.3476 173.159 62.2299 172.621 62.2299 172.014ZM66.8958 172.036C66.8958 171.672 66.8245 171.361 66.6818 171.105C66.5391 170.841 66.3465 170.641 66.1039 170.505C65.8613 170.363 65.6009 170.291 65.3227 170.291C65.0444 170.291 64.7876 170.359 64.5522 170.495C64.3167 170.63 64.1241 170.83 63.9743 171.094C63.8316 171.351 63.7602 171.657 63.7602 172.014C63.7602 172.371 63.8316 172.685 63.9743 172.956C64.1241 173.22 64.3167 173.423 64.5522 173.566C64.7947 173.709 65.0516 173.78 65.3227 173.78C65.6009 173.78 65.8613 173.712 66.1039 173.577C66.3465 173.434 66.5391 173.234 66.6818 172.977C66.8245 172.713 66.8958 172.399 66.8958 172.036ZM73.1535 168.986C73.8598 168.986 74.4306 169.21 74.8658 169.66C75.301 170.102 75.5186 170.723 75.5186 171.522V175H74.0204V171.725C74.0204 171.254 73.9026 170.894 73.6672 170.644C73.4318 170.388 73.1107 170.259 72.704 170.259C72.2902 170.259 71.9621 170.388 71.7195 170.644C71.484 170.894 71.3663 171.254 71.3663 171.725V175H69.8681V169.071H71.3663V169.81C71.5661 169.553 71.8194 169.353 72.1262 169.21C72.4401 169.061 72.7825 168.986 73.1535 168.986ZM80.4535 175L78.4416 172.474V175H76.9434V167.081H78.4416V171.586L80.4321 169.071H82.3799L79.7686 172.046L82.4013 175H80.4535ZM84.6913 168.739V170.612H87.2062V171.8H84.6913V173.78H87.5272V175H83.193V167.519H87.5272V168.739H84.6913ZM92.1635 175L90.9435 173.159L89.8626 175H88.2574L90.1944 172.025L88.236 169.071H89.9268L91.1361 170.901L92.2277 169.071H93.833L91.8853 172.025L93.8544 175H92.1635ZM100.18 171.907C100.18 172.121 100.165 172.314 100.137 172.485H95.8025C95.8382 172.913 95.988 173.248 96.252 173.491C96.516 173.734 96.8406 173.855 97.2259 173.855C97.7824 173.855 98.1783 173.616 98.4138 173.138H100.03C99.8585 173.709 99.5303 174.18 99.0452 174.551C98.56 174.914 97.9643 175.096 97.258 175.096C96.6872 175.096 96.1735 174.971 95.7169 174.722C95.2674 174.465 94.9143 174.105 94.6574 173.641C94.4077 173.177 94.2829 172.642 94.2829 172.036C94.2829 171.422 94.4077 170.883 94.6574 170.42C94.9071 169.956 95.2567 169.599 95.7062 169.349C96.1557 169.1 96.6729 168.975 97.258 168.975C97.8216 168.975 98.3246 169.096 98.7669 169.339C99.2164 169.581 99.5624 169.927 99.805 170.377C100.055 170.819 100.18 171.329 100.18 171.907ZM98.6278 171.479C98.6207 171.094 98.4815 170.787 98.2104 170.559C97.9393 170.323 97.6076 170.206 97.2152 170.206C96.8442 170.206 96.5302 170.32 96.2734 170.548C96.0237 170.769 95.8703 171.08 95.8132 171.479H98.6278ZM108.636 168.986C109.364 168.986 109.949 169.21 110.391 169.66C110.841 170.102 111.065 170.723 111.065 171.522V175H109.567V171.725C109.567 171.262 109.449 170.908 109.214 170.666C108.978 170.416 108.657 170.291 108.251 170.291C107.844 170.291 107.519 170.416 107.277 170.666C107.041 170.908 106.924 171.262 106.924 171.725V175H105.425V171.725C105.425 171.262 105.308 170.908 105.072 170.666C104.837 170.416 104.516 170.291 104.109 170.291C103.695 170.291 103.367 170.416 103.125 170.666C102.889 170.908 102.771 171.262 102.771 171.725V175H101.273V169.071H102.771V169.788C102.964 169.539 103.21 169.342 103.51 169.2C103.817 169.057 104.152 168.986 104.516 168.986C104.98 168.986 105.393 169.085 105.757 169.285C106.121 169.478 106.403 169.756 106.603 170.12C106.795 169.778 107.073 169.503 107.437 169.296C107.808 169.089 108.208 168.986 108.636 168.986ZM113.985 169.927C114.178 169.656 114.442 169.432 114.777 169.253C115.12 169.068 115.508 168.975 115.944 168.975C116.45 168.975 116.907 169.1 117.313 169.349C117.727 169.599 118.052 169.956 118.287 170.42C118.53 170.876 118.651 171.408 118.651 172.014C118.651 172.621 118.53 173.159 118.287 173.63C118.052 174.094 117.727 174.454 117.313 174.711C116.907 174.968 116.45 175.096 115.944 175.096C115.508 175.096 115.123 175.007 114.788 174.829C114.46 174.65 114.192 174.426 113.985 174.155V177.825H112.487V169.071H113.985V169.927ZM117.121 172.014C117.121 171.657 117.046 171.351 116.896 171.094C116.753 170.83 116.561 170.63 116.318 170.495C116.083 170.359 115.826 170.291 115.548 170.291C115.277 170.291 115.02 170.363 114.777 170.505C114.542 170.641 114.349 170.841 114.199 171.105C114.057 171.369 113.985 171.679 113.985 172.036C113.985 172.392 114.057 172.703 114.199 172.967C114.349 173.231 114.542 173.434 114.777 173.577C115.02 173.712 115.277 173.78 115.548 173.78C115.826 173.78 116.083 173.709 116.318 173.566C116.561 173.423 116.753 173.22 116.896 172.956C117.046 172.692 117.121 172.378 117.121 172.014ZM121.238 167.081V175H119.74V167.081H121.238ZM125.351 175.096C124.78 175.096 124.267 174.971 123.81 174.722C123.353 174.465 122.993 174.105 122.729 173.641C122.472 173.177 122.344 172.642 122.344 172.036C122.344 171.429 122.476 170.894 122.74 170.43C123.011 169.967 123.378 169.61 123.842 169.36C124.306 169.103 124.823 168.975 125.394 168.975C125.965 168.975 126.482 169.103 126.946 169.36C127.409 169.61 127.773 169.967 128.037 170.43C128.308 170.894 128.444 171.429 128.444 172.036C128.444 172.642 128.305 173.177 128.027 173.641C127.755 174.105 127.384 174.465 126.914 174.722C126.45 174.971 125.929 175.096 125.351 175.096ZM125.351 173.791C125.622 173.791 125.875 173.726 126.111 173.598C126.353 173.463 126.546 173.263 126.689 172.999C126.831 172.735 126.903 172.414 126.903 172.036C126.903 171.472 126.753 171.04 126.453 170.741C126.161 170.434 125.801 170.281 125.372 170.281C124.944 170.281 124.584 170.434 124.292 170.741C124.006 171.04 123.864 171.472 123.864 172.036C123.864 172.599 124.003 173.034 124.281 173.341C124.566 173.641 124.923 173.791 125.351 173.791Z" fill="#FFFBFB"/>
<path d="M61.3357 121.882V121.901H55.3146V119.691H64.4164V121.742C63.7859 122.197 63.2459 122.753 62.7964 123.409C62.347 124.058 61.9724 124.779 61.6728 125.572C61.3731 126.364 61.1359 127.201 60.9611 128.081C60.7863 128.961 60.6614 129.86 60.5865 130.778C60.5116 131.696 60.4742 132.604 60.4742 133.503H57.5619C57.5619 132.535 57.5994 131.586 57.6743 130.656C57.7555 129.726 57.8803 128.83 58.0489 127.969C58.2237 127.107 58.4547 126.299 58.7418 125.544C59.0352 124.782 59.3942 124.092 59.8187 123.474C60.2494 122.85 60.7551 122.319 61.3357 121.882ZM70.6242 133.728C69.5442 133.728 68.6359 133.544 67.8993 133.175C67.1626 132.801 66.607 132.298 66.2325 131.668C65.8579 131.037 65.6706 130.335 65.6706 129.561C65.6706 128.855 65.808 128.268 66.0826 127.8C66.3636 127.332 66.7038 126.97 67.1033 126.714C67.5091 126.452 67.8899 126.286 68.2457 126.218C67.9461 126.149 67.6183 125.996 67.2625 125.759C66.9129 125.522 66.6164 125.185 66.3729 124.748C66.1295 124.304 66.0077 123.743 66.0077 123.062C66.0077 122.35 66.2044 121.726 66.5977 121.189C66.9972 120.652 67.5434 120.234 68.2364 119.934C68.9355 119.635 69.7315 119.485 70.6242 119.485C71.5169 119.485 72.3097 119.635 73.0027 119.934C73.6956 120.234 74.2418 120.652 74.6414 121.189C75.0409 121.726 75.2407 122.35 75.2407 123.062C75.2407 123.736 75.1158 124.295 74.8661 124.738C74.6226 125.181 74.3261 125.522 73.9765 125.759C73.6269 125.996 73.2992 126.149 72.9933 126.218C73.3554 126.286 73.7362 126.452 74.1357 126.714C74.5352 126.97 74.8755 127.332 75.1564 127.8C75.4373 128.268 75.5778 128.855 75.5778 129.561C75.5778 130.335 75.3874 131.037 75.0066 131.668C74.632 132.298 74.0764 132.801 73.3398 133.175C72.6094 133.544 71.7042 133.728 70.6242 133.728ZM70.6242 131.471C70.9988 131.471 71.3327 131.39 71.6261 131.227C71.9258 131.065 72.163 130.831 72.3378 130.525C72.5126 130.219 72.6 129.848 72.6 129.411C72.6 128.993 72.5157 128.627 72.3472 128.315C72.1849 127.997 71.9539 127.75 71.6542 127.576C71.3608 127.401 71.0175 127.313 70.6242 127.313C70.2309 127.313 69.8844 127.401 69.5848 127.576C69.2851 127.75 69.051 127.997 68.8825 128.315C68.7202 128.634 68.639 128.999 68.639 129.411C68.639 129.848 68.7264 130.219 68.9012 130.525C69.076 130.831 69.3132 131.065 69.6129 131.227C69.9125 131.39 70.2496 131.471 70.6242 131.471ZM70.6242 125.132C71.1736 125.132 71.6105 124.975 71.9352 124.663C72.266 124.345 72.4315 123.927 72.4315 123.409C72.4315 123.034 72.3503 122.725 72.188 122.481C72.0319 122.232 71.8165 122.048 71.5419 121.929C71.2672 121.81 70.9613 121.751 70.6242 121.751C70.2871 121.751 69.9812 121.81 69.7065 121.929C69.4318 122.048 69.2133 122.232 69.051 122.481C68.895 122.725 68.8169 123.034 68.8169 123.409C68.8169 123.927 68.9792 124.345 69.3039 124.663C69.6347 124.975 70.0748 125.132 70.6242 125.132ZM83.038 119.672V133.503H80.1539V122.388C80.0727 122.45 79.8979 122.531 79.6295 122.631C79.3673 122.725 79.052 122.815 78.6837 122.903C78.3154 122.99 77.9346 123.05 77.5413 123.081V120.796C77.9346 120.746 78.3185 120.662 78.6931 120.543C79.0676 120.418 79.3891 120.278 79.6576 120.122C79.9322 119.966 80.1133 119.816 80.2007 119.672H83.038ZM85.5218 133.503V131.124C85.578 130.987 85.7434 130.784 86.0181 130.516C86.2928 130.241 86.6267 129.932 87.02 129.589C87.4133 129.245 87.8253 128.896 88.2561 128.54C88.6931 128.178 89.0957 127.844 89.464 127.538C89.901 127.176 90.3255 126.801 90.7376 126.414C91.1496 126.021 91.4898 125.606 91.7582 125.169C92.0329 124.726 92.1703 124.261 92.1703 123.774C92.1703 123.162 92.0236 122.672 91.7301 122.304C91.443 121.935 90.9841 121.751 90.3536 121.751C89.848 121.751 89.4453 121.863 89.1457 122.088C88.8523 122.307 88.6431 122.616 88.5183 123.015C88.3934 123.409 88.331 123.87 88.331 124.401H85.4281C85.4281 123.39 85.6186 122.516 85.9994 121.779C86.3864 121.043 86.9482 120.478 87.6849 120.084C88.4278 119.685 89.333 119.485 90.4005 119.485C91.4367 119.485 92.3014 119.675 92.9943 120.056C93.6935 120.437 94.2179 120.952 94.5674 121.601C94.917 122.251 95.0918 122.984 95.0918 123.802C95.0918 124.351 94.9857 124.866 94.7735 125.347C94.5674 125.821 94.2959 126.261 93.9588 126.667C93.6279 127.073 93.2721 127.444 92.8913 127.782C92.5105 128.112 92.1515 128.412 91.8144 128.68C91.2463 129.13 90.7532 129.526 90.3349 129.87C89.9166 130.213 89.5827 130.503 89.333 130.741C89.0895 130.978 88.9397 131.159 88.8835 131.284H95.0076V133.503H85.5218ZM110.003 133.503V131.124C110.059 130.987 110.225 130.784 110.499 130.516C110.774 130.241 111.108 129.932 111.501 129.589C111.894 129.245 112.306 128.896 112.737 128.54C113.174 128.178 113.577 127.844 113.945 127.538C114.382 127.176 114.807 126.801 115.219 126.414C115.631 126.021 115.971 125.606 116.239 125.169C116.514 124.726 116.651 124.261 116.651 123.774C116.651 123.162 116.505 122.672 116.211 122.304C115.924 121.935 115.465 121.751 114.835 121.751C114.329 121.751 113.926 121.863 113.627 122.088C113.333 122.307 113.124 122.616 112.999 123.015C112.875 123.409 112.812 123.87 112.812 124.401H109.909C109.909 123.39 110.1 122.516 110.48 121.779C110.868 121.043 111.429 120.478 112.166 120.084C112.909 119.685 113.814 119.485 114.882 119.485C115.918 119.485 116.782 119.675 117.475 120.056C118.175 120.437 118.699 120.952 119.049 121.601C119.398 122.251 119.573 122.984 119.573 123.802C119.573 124.351 119.467 124.866 119.255 125.347C119.049 125.821 118.777 126.261 118.44 126.667C118.109 127.073 117.753 127.444 117.372 127.782C116.992 128.112 116.633 128.412 116.296 128.68C115.727 129.13 115.234 129.526 114.816 129.87C114.398 130.213 114.064 130.503 113.814 130.741C113.571 130.978 113.421 131.159 113.365 131.284H119.489V133.503H110.003ZM127.002 119.672V133.503H124.118V122.388C124.037 122.45 123.862 122.531 123.594 122.631C123.331 122.725 123.016 122.815 122.648 122.903C122.28 122.99 121.899 123.05 121.505 123.081V120.796C121.899 120.746 122.283 120.662 122.657 120.543C123.032 120.418 123.353 120.278 123.622 120.122C123.896 119.966 124.077 119.816 124.165 119.672H127.002ZM136.509 126.218C137.046 126.236 137.511 126.389 137.904 126.677C138.304 126.964 138.607 127.345 138.813 127.819C139.025 128.293 139.131 128.83 139.131 129.43C139.131 130.197 138.965 130.909 138.635 131.565C138.304 132.214 137.789 132.738 137.09 133.138C136.397 133.531 135.501 133.728 134.402 133.728C133.466 133.728 132.685 133.606 132.061 133.362C131.437 133.113 130.94 132.773 130.572 132.342C130.21 131.911 129.951 131.418 129.795 130.862C129.645 130.3 129.57 129.701 129.57 129.064C129.57 129.058 129.57 129.052 129.57 129.046C129.57 129.039 129.57 129.033 129.57 129.027H132.473C132.473 129.033 132.473 129.039 132.473 129.046C132.473 129.052 132.473 129.058 132.473 129.064C132.473 129.695 132.551 130.185 132.707 130.535C132.869 130.884 133.097 131.128 133.391 131.265C133.684 131.402 134.034 131.471 134.44 131.471C134.97 131.471 135.398 131.306 135.722 130.975C136.053 130.644 136.219 130.104 136.219 129.355C136.219 129.036 136.181 128.752 136.106 128.503C136.038 128.253 135.925 128.041 135.769 127.866C135.613 127.691 135.401 127.56 135.132 127.473C134.864 127.379 134.533 127.332 134.14 127.332H133.653V125.3H134.14C134.527 125.3 134.852 125.25 135.114 125.15C135.382 125.044 135.598 124.904 135.76 124.729C135.922 124.548 136.038 124.345 136.106 124.12C136.181 123.889 136.219 123.652 136.219 123.409C136.219 122.828 136.056 122.407 135.732 122.144C135.407 121.882 134.992 121.751 134.486 121.751C133.906 121.751 133.425 121.91 133.044 122.229C132.663 122.547 132.473 123.124 132.473 123.961H129.57C129.57 123.362 129.661 122.794 129.842 122.257C130.023 121.714 130.307 121.236 130.694 120.824C131.081 120.406 131.583 120.078 132.202 119.841C132.82 119.604 133.562 119.485 134.43 119.485C135.529 119.485 136.425 119.666 137.118 120.028C137.811 120.39 138.319 120.858 138.644 121.433C138.969 122.007 139.131 122.616 139.131 123.259C139.131 123.783 139.025 124.267 138.813 124.71C138.607 125.153 138.304 125.509 137.904 125.778C137.511 126.046 137.046 126.193 136.509 126.218ZM145.621 133.728C144.784 133.728 144.094 133.587 143.551 133.306C143.008 133.019 142.587 132.663 142.287 132.239C141.987 131.808 141.775 131.374 141.65 130.937C141.532 130.494 141.472 130.119 141.472 129.814C141.472 129.795 141.472 129.782 141.472 129.776C141.472 129.77 141.472 129.76 141.472 129.748H144.169C144.169 129.76 144.169 129.77 144.169 129.776C144.169 129.782 144.169 129.795 144.169 129.814C144.169 129.97 144.188 130.144 144.225 130.338C144.269 130.525 144.344 130.706 144.45 130.881C144.556 131.056 144.703 131.199 144.89 131.312C145.084 131.424 145.33 131.48 145.63 131.48C146.079 131.48 146.454 131.287 146.754 130.9C147.053 130.506 147.275 129.91 147.419 129.111C147.568 128.312 147.643 127.298 147.643 126.068L148.186 126.059C148.161 126.452 148.021 126.833 147.765 127.201C147.515 127.569 147.15 127.872 146.669 128.109C146.189 128.34 145.599 128.456 144.9 128.456C144.038 128.456 143.32 128.265 142.746 127.885C142.172 127.497 141.738 126.986 141.444 126.349C141.157 125.712 141.013 125.01 141.013 124.242C141.013 123.33 141.191 122.516 141.547 121.798C141.903 121.08 142.431 120.515 143.13 120.103C143.835 119.691 144.712 119.485 145.761 119.485C146.872 119.485 147.774 119.753 148.467 120.29C149.166 120.821 149.681 121.579 150.012 122.566C150.343 123.546 150.509 124.713 150.509 126.068C150.509 127.298 150.403 128.39 150.19 129.345C149.978 130.294 149.663 131.093 149.244 131.743C148.832 132.392 148.321 132.885 147.709 133.222C147.103 133.559 146.407 133.728 145.621 133.728ZM145.63 126.377C145.998 126.377 146.32 126.29 146.594 126.115C146.875 125.94 147.094 125.69 147.25 125.366C147.412 125.035 147.493 124.632 147.493 124.158C147.493 123.677 147.422 123.259 147.278 122.903C147.134 122.541 146.928 122.257 146.66 122.051C146.398 121.845 146.089 121.742 145.733 121.742C145.333 121.742 144.999 121.829 144.731 122.004C144.469 122.179 144.269 122.438 144.132 122.781C144.001 123.118 143.935 123.54 143.935 124.045C143.935 124.526 144.001 124.941 144.132 125.291C144.269 125.64 144.463 125.909 144.712 126.096C144.968 126.283 145.274 126.377 145.63 126.377ZM169.936 133.728C169.056 133.728 168.306 133.537 167.688 133.156C167.077 132.776 166.577 132.258 166.19 131.602C165.809 130.94 165.532 130.182 165.357 129.327C165.182 128.471 165.095 127.572 165.095 126.63C165.095 125.687 165.182 124.788 165.357 123.933C165.532 123.071 165.809 122.307 166.19 121.639C166.577 120.971 167.077 120.446 167.688 120.066C168.306 119.679 169.056 119.485 169.936 119.485C170.816 119.485 171.562 119.679 172.174 120.066C172.792 120.446 173.291 120.971 173.672 121.639C174.059 122.307 174.34 123.071 174.515 123.933C174.69 124.788 174.777 125.687 174.777 126.63C174.777 127.572 174.69 128.471 174.515 129.327C174.34 130.182 174.059 130.94 173.672 131.602C173.291 132.258 172.792 132.776 172.174 133.156C171.562 133.537 170.816 133.728 169.936 133.728ZM169.936 131.471C170.354 131.471 170.704 131.312 170.985 130.993C171.272 130.669 171.487 130.151 171.631 129.439C171.774 128.727 171.846 127.791 171.846 126.63C171.846 125.462 171.774 124.526 171.631 123.821C171.487 123.109 171.272 122.591 170.985 122.266C170.704 121.941 170.354 121.779 169.936 121.779C169.524 121.779 169.174 121.941 168.887 122.266C168.6 122.591 168.384 123.109 168.241 123.821C168.097 124.526 168.026 125.462 168.026 126.63C168.026 127.797 168.097 128.737 168.241 129.448C168.384 130.154 168.6 130.669 168.887 130.993C169.174 131.312 169.524 131.471 169.936 131.471ZM181.401 133.728C180.321 133.728 179.412 133.544 178.676 133.175C177.939 132.801 177.384 132.298 177.009 131.668C176.634 131.037 176.447 130.335 176.447 129.561C176.447 128.855 176.584 128.268 176.859 127.8C177.14 127.332 177.48 126.97 177.88 126.714C178.286 126.452 178.666 126.286 179.022 126.218C178.723 126.149 178.395 125.996 178.039 125.759C177.689 125.522 177.393 125.185 177.149 124.748C176.906 124.304 176.784 123.743 176.784 123.062C176.784 122.35 176.981 121.726 177.374 121.189C177.774 120.652 178.32 120.234 179.013 119.934C179.712 119.635 180.508 119.485 181.401 119.485C182.293 119.485 183.086 119.635 183.779 119.934C184.472 120.234 185.018 120.652 185.418 121.189C185.817 121.726 186.017 122.35 186.017 123.062C186.017 123.736 185.892 124.295 185.643 124.738C185.399 125.181 185.103 125.522 184.753 125.759C184.403 125.996 184.076 126.149 183.77 126.218C184.132 126.286 184.513 126.452 184.912 126.714C185.312 126.97 185.652 127.332 185.933 127.8C186.214 128.268 186.354 128.855 186.354 129.561C186.354 130.335 186.164 131.037 185.783 131.668C185.409 132.298 184.853 132.801 184.116 133.175C183.386 133.544 182.481 133.728 181.401 133.728ZM181.401 131.471C181.775 131.471 182.109 131.39 182.403 131.227C182.702 131.065 182.94 130.831 183.114 130.525C183.289 130.219 183.377 129.848 183.377 129.411C183.377 128.993 183.292 128.627 183.124 128.315C182.961 127.997 182.73 127.75 182.431 127.576C182.137 127.401 181.794 127.313 181.401 127.313C181.007 127.313 180.661 127.401 180.361 127.576C180.062 127.75 179.828 127.997 179.659 128.315C179.497 128.634 179.416 128.999 179.416 129.411C179.416 129.848 179.503 130.219 179.678 130.525C179.853 130.831 180.09 131.065 180.389 131.227C180.689 131.39 181.026 131.471 181.401 131.471ZM181.401 125.132C181.95 125.132 182.387 124.975 182.712 124.663C183.043 124.345 183.208 123.927 183.208 123.409C183.208 123.034 183.127 122.725 182.965 122.481C182.808 122.232 182.593 122.048 182.318 121.929C182.044 121.81 181.738 121.751 181.401 121.751C181.064 121.751 180.758 121.81 180.483 121.929C180.208 122.048 179.99 122.232 179.828 122.481C179.672 122.725 179.593 123.034 179.593 123.409C179.593 123.927 179.756 124.345 180.08 124.663C180.411 124.975 180.851 125.132 181.401 125.132ZM188.093 133.503V131.124C188.149 130.987 188.315 130.784 188.589 130.516C188.864 130.241 189.198 129.932 189.591 129.589C189.985 129.245 190.397 128.896 190.827 128.54C191.264 128.178 191.667 127.844 192.035 127.538C192.472 127.176 192.897 126.801 193.309 126.414C193.721 126.021 194.061 125.606 194.33 125.169C194.604 124.726 194.742 124.261 194.742 123.774C194.742 123.162 194.595 122.672 194.301 122.304C194.014 121.935 193.555 121.751 192.925 121.751C192.419 121.751 192.017 121.863 191.717 122.088C191.424 122.307 191.214 122.616 191.09 123.015C190.965 123.409 190.902 123.87 190.902 124.401H187.999C187.999 123.39 188.19 122.516 188.571 121.779C188.958 121.043 189.52 120.478 190.256 120.084C190.999 119.685 191.904 119.485 192.972 119.485C194.008 119.485 194.873 119.675 195.566 120.056C196.265 120.437 196.789 120.952 197.139 121.601C197.488 122.251 197.663 122.984 197.663 123.802C197.663 124.351 197.557 124.866 197.345 125.347C197.139 125.821 196.867 126.261 196.53 126.667C196.199 127.073 195.843 127.444 195.463 127.782C195.082 128.112 194.723 128.412 194.386 128.68C193.818 129.13 193.324 129.526 192.906 129.87C192.488 130.213 192.154 130.503 191.904 130.741C191.661 130.978 191.511 131.159 191.455 131.284H197.579V133.503H188.093ZM206.394 126.218C206.931 126.236 207.396 126.389 207.789 126.677C208.189 126.964 208.491 127.345 208.697 127.819C208.91 128.293 209.016 128.83 209.016 129.43C209.016 130.197 208.85 130.909 208.52 131.565C208.189 132.214 207.674 132.738 206.974 133.138C206.282 133.531 205.386 133.728 204.287 133.728C203.351 133.728 202.57 133.606 201.946 133.362C201.322 133.113 200.825 132.773 200.457 132.342C200.095 131.911 199.836 131.418 199.68 130.862C199.53 130.3 199.455 129.701 199.455 129.064C199.455 129.058 199.455 129.052 199.455 129.046C199.455 129.039 199.455 129.033 199.455 129.027H202.358C202.358 129.033 202.358 129.039 202.358 129.046C202.358 129.052 202.358 129.058 202.358 129.064C202.358 129.695 202.436 130.185 202.592 130.535C202.754 130.884 202.982 131.128 203.276 131.265C203.569 131.402 203.919 131.471 204.324 131.471C204.855 131.471 205.283 131.306 205.607 130.975C205.938 130.644 206.104 130.104 206.104 129.355C206.104 129.036 206.066 128.752 205.991 128.503C205.923 128.253 205.81 128.041 205.654 127.866C205.498 127.691 205.286 127.56 205.017 127.473C204.749 127.379 204.418 127.332 204.025 127.332H203.538V125.3H204.025C204.412 125.3 204.736 125.25 204.999 125.15C205.267 125.044 205.482 124.904 205.645 124.729C205.807 124.548 205.923 124.345 205.991 124.12C206.066 123.889 206.104 123.652 206.104 123.409C206.104 122.828 205.941 122.407 205.617 122.144C205.292 121.882 204.877 121.751 204.371 121.751C203.791 121.751 203.31 121.91 202.929 122.229C202.548 122.547 202.358 123.124 202.358 123.961H199.455C199.455 123.362 199.546 122.794 199.727 122.257C199.908 121.714 200.192 121.236 200.579 120.824C200.966 120.406 201.468 120.078 202.086 119.841C202.704 119.604 203.447 119.485 204.315 119.485C205.414 119.485 206.31 119.666 207.003 120.028C207.696 120.39 208.204 120.858 208.529 121.433C208.854 122.007 209.016 122.616 209.016 123.259C209.016 123.783 208.91 124.267 208.697 124.71C208.491 125.153 208.189 125.509 207.789 125.778C207.396 126.046 206.931 126.193 206.394 126.218ZM233.101 121.882H227.632L227.136 125.487C227.154 125.425 227.22 125.341 227.332 125.235C227.445 125.128 227.601 125.022 227.801 124.916C228.007 124.804 228.259 124.713 228.559 124.645C228.865 124.57 229.218 124.532 229.617 124.532C230.866 124.532 231.815 124.938 232.464 125.75C233.119 126.555 233.447 127.61 233.447 128.915C233.447 129.957 233.266 130.837 232.904 131.555C232.548 132.273 232.021 132.816 231.321 133.185C230.622 133.547 229.751 133.728 228.709 133.728C227.86 133.728 227.139 133.603 226.546 133.353C225.959 133.097 225.481 132.76 225.113 132.342C224.751 131.917 224.486 131.449 224.317 130.937C224.149 130.419 224.064 129.895 224.064 129.364C224.064 129.352 224.064 129.345 224.064 129.345C224.064 129.339 224.064 129.333 224.064 129.327H226.939C226.939 129.333 226.939 129.339 226.939 129.345C226.939 129.345 226.939 129.352 226.939 129.364C226.97 130.032 227.126 130.55 227.407 130.918C227.694 131.287 228.144 131.471 228.756 131.471C229.149 131.471 229.477 131.38 229.739 131.199C230.007 131.018 230.207 130.744 230.338 130.375C230.469 130.001 230.535 129.536 230.535 128.98C230.535 128.231 230.404 127.65 230.142 127.238C229.879 126.82 229.458 126.611 228.877 126.611C228.534 126.611 228.231 126.677 227.969 126.808C227.713 126.939 227.501 127.101 227.332 127.295C227.17 127.488 227.055 127.679 226.986 127.866L224.223 127.145L225.3 119.691H233.101V121.882ZM239.839 133.728C238.959 133.728 238.21 133.537 237.592 133.156C236.98 132.776 236.48 132.258 236.093 131.602C235.713 130.94 235.435 130.182 235.26 129.327C235.085 128.471 234.998 127.572 234.998 126.63C234.998 125.687 235.085 124.788 235.26 123.933C235.435 123.071 235.713 122.307 236.093 121.639C236.48 120.971 236.98 120.446 237.592 120.066C238.21 119.679 238.959 119.485 239.839 119.485C240.719 119.485 241.465 119.679 242.077 120.066C242.695 120.446 243.194 120.971 243.575 121.639C243.962 122.307 244.243 123.071 244.418 123.933C244.593 124.788 244.68 125.687 244.68 126.63C244.68 127.572 244.593 128.471 244.418 129.327C244.243 130.182 243.962 130.94 243.575 131.602C243.194 132.258 242.695 132.776 242.077 133.156C241.465 133.537 240.719 133.728 239.839 133.728ZM239.839 131.471C240.257 131.471 240.607 131.312 240.888 130.993C241.175 130.669 241.39 130.151 241.534 129.439C241.678 128.727 241.749 127.791 241.749 126.63C241.749 125.462 241.678 124.526 241.534 123.821C241.39 123.109 241.175 122.591 240.888 122.266C240.607 121.941 240.257 121.779 239.839 121.779C239.427 121.779 239.077 121.941 238.79 122.266C238.503 122.591 238.288 123.109 238.144 123.821C238.001 124.526 237.929 125.462 237.929 126.63C237.929 127.797 238.001 128.737 238.144 129.448C238.288 130.154 238.503 130.669 238.79 130.993C239.077 131.312 239.427 131.471 239.839 131.471ZM251.407 133.503V130.853H245.564V128.84L250.489 119.672H254.244V128.662H255.892V130.853H254.244V133.503H251.407ZM247.746 129.907L246.968 128.662H251.407V121.526L251.997 121.686L247.746 129.907ZM266.239 121.882H260.77L260.274 125.487C260.293 125.425 260.358 125.341 260.471 125.235C260.583 125.128 260.739 125.022 260.939 124.916C261.145 124.804 261.398 124.713 261.697 124.645C262.003 124.57 262.356 124.532 262.756 124.532C264.004 124.532 264.953 124.938 265.602 125.75C266.258 126.555 266.586 127.61 266.586 128.915C266.586 129.957 266.404 130.837 266.042 131.555C265.687 132.273 265.159 132.816 264.46 133.185C263.761 133.547 262.89 133.728 261.847 133.728C260.998 133.728 260.277 133.603 259.684 133.353C259.097 133.097 258.62 132.76 258.252 132.342C257.889 131.917 257.624 131.449 257.456 130.937C257.287 130.419 257.203 129.895 257.203 129.364C257.203 129.352 257.203 129.345 257.203 129.345C257.203 129.339 257.203 129.333 257.203 129.327H260.078C260.078 129.333 260.078 129.339 260.078 129.345C260.078 129.345 260.078 129.352 260.078 129.364C260.109 130.032 260.265 130.55 260.546 130.918C260.833 131.287 261.282 131.471 261.894 131.471C262.287 131.471 262.615 131.38 262.877 131.199C263.146 131.018 263.346 130.744 263.477 130.375C263.608 130.001 263.673 129.536 263.673 128.98C263.673 128.231 263.542 127.65 263.28 127.238C263.018 126.82 262.596 126.611 262.016 126.611C261.673 126.611 261.37 126.677 261.108 126.808C260.852 126.939 260.639 127.101 260.471 127.295C260.308 127.488 260.193 127.679 260.124 127.866L257.362 127.145L258.439 119.691H266.239V121.882Z" fill="#FFFBFB"/>
</g>
<defs>
<filter id="filter0_d_34_6046" x="4.24561" y="13.7806" width="358.509" height="222.242" filterUnits="userSpaceOnUse" color-interpolation-filters="sRGB">
<feFlood flood-opacity="0" result="BackgroundImageFix"/>
<feColorMatrix in="SourceAlpha" type="matrix" values="0 0 0 0 0 0 0 0 0 0 0 0 0 0 0 0 0 0 127 0" result="hardAlpha"/>
<feOffset dy="5.35088"/>
<feGaussianBlur stdDeviation="13.3772"/>
<feComposite in2="hardAlpha" operator="out"/>
<feColorMatrix type="matrix" values="0 0 0 0 0 0 0 0 0 0 0 0 0 0 0 0 0 0 0.02 0"/>
<feBlend mode="normal" in2="BackgroundImageFix" result="effect1_dropShadow_34_6046"/>
<feBlend mode="normal" in="SourceGraphic" in2="effect1_dropShadow_34_6046" result="shape"/>
</filter>
<filter id="filter1_b_34_6046" x="19.3324" y="23.5165" width="328.335" height="192.068" filterUnits="userSpaceOnUse" color-interpolation-filters="sRGB">
<feFlood flood-opacity="0" result="BackgroundImageFix"/>
<feGaussianBlur in="BackgroundImageFix" stdDeviation="5.8338"/>
<feComposite in2="SourceAlpha" operator="in" result="effect1_backgroundBlur_34_6046"/>
<feBlend mode="normal" in="SourceGraphic" in2="effect1_backgroundBlur_34_6046" result="shape"/>
</filter>
<radialGradient id="paint0_radial_34_6046" cx="0" cy="0" r="1" gradientUnits="userSpaceOnUse" gradientTransform="translate(31 38.2062) rotate(28.0757) scale(345.677 519.529)">
<stop stop-color="white" stop-opacity="0.4"/>
<stop offset="1" stop-color="white" stop-opacity="0"/>
</radialGradient>
<radialGradient id="paint1_radial_34_6046" cx="0" cy="0" r="1" gradientUnits="userSpaceOnUse" gradientTransform="translate(336 203.917) rotate(-151.314) scale(343.13 516.897)">
<stop stop-color="white" stop-opacity="0.55"/>
<stop offset="1" stop-color="white" stop-opacity="0"/>
</radialGradient>
<radialGradient id="paint2_radial_34_6046" cx="0" cy="0" r="1" gradientUnits="userSpaceOnUse" gradientTransform="translate(31 38.2062) rotate(28.5159) scale(347.11 522.553)">
<stop stop-color="white" stop-opacity="0.27"/>
</radialGradient>
<linearGradient id="paint3_linear_34_6046" x1="80.746" y1="90.0104" x2="56.4328" y2="111.675" gradientUnits="userSpaceOnUse">
<stop stop-color="#E7BD61"/>
<stop offset="0.495738" stop-color="#FEE9BA"/>
<stop offset="1" stop-color="#E7BD61"/>
</linearGradient>
</defs>
</svg>
