<svg width="44" height="46" viewBox="0 0 44 46" fill="none" xmlns="http://www.w3.org/2000/svg">
<path d="M23.6562 9.13718C23.6562 6.16377 27.2723 4.69831 29.3424 6.83279L41.1081 18.9647C42.3643 20.26 43.0668 21.9935 43.0668 23.7979V37.3326C43.0668 40.306 39.4508 41.7715 37.3807 39.637L25.615 27.5051C24.3588 26.2098 23.6562 24.4763 23.6562 22.6719V9.13718Z" fill="#0C7FDA"/>
<path d="M11.625 8.66745C11.625 5.69404 15.241 4.22858 17.3111 6.36307L28.7954 18.2047C30.2321 19.6862 31.0356 21.6688 31.0356 23.7325V36.8629C31.0356 39.8363 27.4195 41.3018 25.3495 39.1673L13.5837 27.0354C12.3275 25.7401 11.625 24.0066 11.625 22.2022V8.66745Z" fill="#2196F3"/>
<path d="M0 9.13706C0 6.16365 3.61605 4.69819 5.68611 6.83267L17.4518 18.9646C18.708 20.2599 19.4106 21.9934 19.4106 23.7978V37.3325C19.4106 40.3059 15.7945 41.7714 13.7245 39.6369L1.95873 27.505C0.702531 26.2097 0 24.4762 0 22.6718V9.13706Z" fill="#6EBBF7"/>
</svg>
